<svg width="12" height="12" viewBox="0 0 12 12" fill="none" xmlns="http://www.w3.org/2000/svg">
<g id="av_timer" clip-path="url(#clip0_2046_21468)">
<path id="Vector" d="M5.5 8.5C5.5 8.775 5.725 9 6 9C6.275 9 6.5 8.775 6.5 8.5C6.5 8.225 6.275 8 6 8C5.725 8 5.5 8.225 5.5 8.5ZM5.5 1.5V3.5H6.5V2.54C8.195 2.785 9.5 4.235 9.5 6C9.5 7.935 7.935 9.5 6 9.5C4.065 9.5 2.5 7.935 2.5 6C2.5 5.16 2.795 4.39 3.29 3.79L6 6.5L6.705 5.795L3.305 2.395V2.405C2.21 3.225 1.5 4.525 1.5 6C1.5 8.485 3.51 10.5 6 10.5C8.485 10.5 10.5 8.485 10.5 6C10.5 3.515 8.485 1.5 6 1.5H5.5ZM9 6C9 5.725 8.775 5.5 8.5 5.5C8.225 5.5 8 5.725 8 6C8 6.275 8.225 6.5 8.5 6.5C8.775 6.5 9 6.275 9 6ZM3 6C3 6.275 3.225 6.5 3.5 6.5C3.775 6.5 4 6.275 4 6C4 5.725 3.775 5.5 3.5 5.5C3.225 5.5 3 5.725 3 6Z" fill="white"/>
</g>
<defs>
<clipPath id="clip0_2046_21468">
<rect width="12" height="12" fill="white"/>
</clipPath>
</defs>
</svg>
