<svg width="232" height="121" viewBox="0 0 232 121" fill="none" xmlns="http://www.w3.org/2000/svg">
<g filter="url(#filter0_d_968_1126)">
<g filter="url(#filter1_d_968_1126)">
<rect x="34" y="34" width="53.1408" height="53.1408" rx="7.1903" fill="#E99E36"/>
<g clip-path="url(#clip0_968_1126)">
<path d="M46.3682 49.209V71.9332H49.5807V52.4311H74.7734V49.209H46.3682Z" fill="white"/>
<path d="M68.5172 55.6528H52.9619V58.8749H68.5172V55.6528Z" fill="white"/>
<path d="M74.7732 68.7119H52.793V71.934H74.7732V68.7119Z" fill="white"/>
<path d="M71.5607 62.2666H52.793V65.4887H71.5607V62.2666Z" fill="white"/>
</g>
</g>
<path d="M104.424 72.5703V47.0265H121.417V50.7222H108.88V57.7513H120.62V61.447H108.88V68.8746H121.417V72.5703H104.424ZM133.547 72.9326C128.861 72.9326 126.518 70.6138 126.518 65.976V58.2585H123.112V54.8527H126.518V49.5628H131.047V54.8527H136.409V58.2585H131.047V65.7224C131.047 66.8818 131.301 67.7514 131.808 68.3311C132.315 68.9108 133.137 69.2007 134.272 69.2007C134.61 69.2007 134.96 69.1645 135.323 69.092C135.685 68.9954 136.059 68.8988 136.446 68.8021L137.134 72.1355C136.699 72.3771 136.144 72.5703 135.467 72.7152C134.815 72.8602 134.175 72.9326 133.547 72.9326ZM145.75 72.9326C141.402 72.9326 139.228 70.493 139.228 65.6137V54.8527H143.757V65.6862C143.757 66.9422 144.011 67.8722 144.518 68.4761C145.025 69.0799 145.834 69.3819 146.945 69.3819C148.153 69.3819 149.144 68.9712 149.917 68.15C150.689 67.3045 151.076 66.1934 151.076 64.8166V54.8527H155.605V72.5703H151.185V69.9254C150.001 71.9302 148.189 72.9326 145.75 72.9326ZM167.131 72.9326C165.585 72.9326 164.22 72.5582 163.036 71.8094C161.877 71.0606 160.971 69.9978 160.319 68.621C159.667 67.22 159.341 65.5775 159.341 63.6934C159.341 61.7851 159.667 60.1547 160.319 58.802C160.971 57.4252 161.877 56.3624 163.036 55.6136C164.22 54.8648 165.585 54.4904 167.131 54.4904C168.387 54.4904 169.522 54.7681 170.536 55.3237C171.551 55.8793 172.312 56.616 172.819 57.5339V47.0265H177.348V72.5703H172.928V69.6355C172.445 70.65 171.684 71.4592 170.645 72.0631C169.606 72.6428 168.435 72.9326 167.131 72.9326ZM168.399 69.4906C169.751 69.4906 170.838 69.0075 171.66 68.0413C172.481 67.0509 172.892 65.6016 172.892 63.6934C172.892 61.761 172.481 60.3238 171.66 59.3817C170.838 58.4155 169.751 57.9324 168.399 57.9324C167.046 57.9324 165.959 58.4155 165.138 59.3817C164.317 60.3238 163.906 61.761 163.906 63.6934C163.906 65.6016 164.317 67.0509 165.138 68.0413C165.959 69.0075 167.046 69.4906 168.399 69.4906ZM190.776 72.9326C188.771 72.9326 187.044 72.5582 185.595 71.8094C184.146 71.0606 183.022 69.9978 182.225 68.621C181.452 67.2442 181.066 65.6137 181.066 63.7296C181.066 61.8938 181.44 60.2875 182.189 58.9107C182.962 57.5339 184.013 56.459 185.341 55.686C186.694 54.8889 188.228 54.4904 189.943 54.4904C192.455 54.4904 194.436 55.2875 195.885 56.8817C197.358 58.4759 198.095 60.6499 198.095 63.4035V64.7441H185.414C185.752 67.9084 187.564 69.4906 190.849 69.4906C191.839 69.4906 192.829 69.3456 193.82 69.0558C194.81 68.7418 195.716 68.2587 196.537 67.6065L197.805 70.65C196.96 71.3505 195.897 71.9061 194.617 72.3167C193.337 72.7273 192.056 72.9326 190.776 72.9326ZM190.124 57.5701C188.795 57.5701 187.721 57.9807 186.899 58.802C186.078 59.6233 185.583 60.7344 185.414 62.1354H194.327C194.23 60.6619 193.82 59.5387 193.095 58.7658C192.395 57.9687 191.404 57.5701 190.124 57.5701Z" fill="#E99E36"/>
</g>
<defs>
<filter id="filter0_d_968_1126" x="0.787003" y="0.787003" width="233.06" height="119.567" filterUnits="userSpaceOnUse" color-interpolation-filters="sRGB">
<feFlood flood-opacity="0" result="BackgroundImageFix"/>
<feColorMatrix in="SourceAlpha" type="matrix" values="0 0 0 0 0 0 0 0 0 0 0 0 0 0 0 0 0 0 127 0" result="hardAlpha"/>
<feOffset/>
<feGaussianBlur stdDeviation="16.6065"/>
<feComposite in2="hardAlpha" operator="out"/>
<feColorMatrix type="matrix" values="0 0 0 0 1 0 0 0 0 1 0 0 0 0 1 0 0 0 0.5 0"/>
<feBlend mode="normal" in2="BackgroundImageFix" result="effect1_dropShadow_968_1126"/>
<feBlend mode="normal" in="SourceGraphic" in2="effect1_dropShadow_968_1126" result="shape"/>
</filter>
<filter id="filter1_d_968_1126" x="9.28335" y="9.28335" width="102.574" height="102.574" filterUnits="userSpaceOnUse" color-interpolation-filters="sRGB">
<feFlood flood-opacity="0" result="BackgroundImageFix"/>
<feColorMatrix in="SourceAlpha" type="matrix" values="0 0 0 0 0 0 0 0 0 0 0 0 0 0 0 0 0 0 127 0" result="hardAlpha"/>
<feOffset/>
<feGaussianBlur stdDeviation="12.3583"/>
<feComposite in2="hardAlpha" operator="out"/>
<feColorMatrix type="matrix" values="0 0 0 0 1 0 0 0 0 1 0 0 0 0 1 0 0 0 0.5 0"/>
<feBlend mode="normal" in2="BackgroundImageFix" result="effect1_dropShadow_968_1126"/>
<feBlend mode="normal" in="SourceGraphic" in2="effect1_dropShadow_968_1126" result="shape"/>
</filter>
<clipPath id="clip0_968_1126">
<rect width="28.4053" height="22.7242" fill="white" transform="translate(46.3682 49.2085)"/>
</clipPath>
</defs>
</svg>
