<svg width="42" height="270" viewBox="0 0 42 270" fill="none" xmlns="http://www.w3.org/2000/svg">
<path d="M21 41C9.95431 41 1 32.0457 1 21C1 9.9543 9.95431 0.999999 21 0.999999C32.0457 1 41 9.9543 41 21C41 32.0457 32.0457 41 21 41Z" stroke="#C2C2C2" stroke-width="2"/>
<path d="M17.34 28V26.26H20.54V16.3L18.04 17.86L17.2 16.32L21.14 13.9H22.6V26.26H25.6V28H17.34Z" fill="#8A8A8A"/>
<rect width="74" height="2" transform="matrix(-8.59895e-10 1 -1 -2.222e-06 22 41)" fill="#DDDDDD"/>
<path d="M21 155C9.95431 155 1 146.046 1 135C1 123.954 9.95431 115 21 115C32.0457 115 41 123.954 41 135C41 146.046 32.0457 155 21 155Z" stroke="#C2C2C2" stroke-width="2"/>
<path d="M16.7 142V140.46L21.4 135.42C22.0533 134.713 22.52 134.073 22.8 133.5C23.0933 132.927 23.24 132.347 23.24 131.76C23.24 130.24 22.3467 129.48 20.56 129.48C19.2 129.48 17.98 129.993 16.9 131.02L16.16 129.44C16.6933 128.92 17.3733 128.507 18.2 128.2C19.0267 127.88 19.8867 127.72 20.78 127.72C22.2333 127.72 23.3467 128.053 24.12 128.72C24.9067 129.387 25.3 130.34 25.3 131.58C25.3 132.42 25.0933 133.24 24.68 134.04C24.28 134.84 23.6467 135.693 22.78 136.6L19.3 140.26H25.86V142H16.7Z" fill="#8A8A8A"/>
<rect width="74" height="2" transform="matrix(-8.59895e-10 1 -1 -2.222e-06 22 155)" fill="#DDDDDD"/>
<path d="M21 269C9.95431 269 1 260.046 1 249C1 237.954 9.95431 229 21 229C32.0457 229 41 237.954 41 249C41 260.046 32.0457 269 21 269Z" stroke="#C2C2C2" stroke-width="2"/>
<path d="M20.78 256.18C19.8333 256.18 18.9333 256.04 18.08 255.76C17.2267 255.467 16.5133 255.06 15.94 254.54L16.66 252.94C17.2867 253.447 17.9333 253.82 18.6 254.06C19.2667 254.3 19.9733 254.42 20.72 254.42C21.68 254.42 22.4067 254.213 22.9 253.8C23.4067 253.387 23.66 252.793 23.66 252.02C23.66 251.247 23.4067 250.673 22.9 250.3C22.4067 249.927 21.6867 249.74 20.74 249.74H18.56V248H20.54C21.38 248 22.04 247.787 22.52 247.36C23.0133 246.933 23.26 246.347 23.26 245.6C23.26 244.92 23.0333 244.4 22.58 244.04C22.1267 243.667 21.48 243.48 20.64 243.48C19.2133 243.48 17.9667 243.993 16.9 245.02L16.18 243.44C16.7267 242.893 17.4067 242.473 18.22 242.18C19.0467 241.873 19.9067 241.72 20.8 241.72C22.2133 241.72 23.3133 242.047 24.1 242.7C24.8867 243.34 25.28 244.233 25.28 245.38C25.28 246.153 25.08 246.833 24.68 247.42C24.2933 248.007 23.7533 248.433 23.06 248.7C23.9 248.913 24.5467 249.327 25 249.94C25.4533 250.54 25.68 251.28 25.68 252.16C25.68 253.4 25.24 254.38 24.36 255.1C23.4933 255.82 22.3 256.18 20.78 256.18Z" fill="#8A8A8A"/>
</svg>
