<svg width="13" height="12" viewBox="0 0 13 12" fill="none" xmlns="http://www.w3.org/2000/svg">
<g id="cast" clip-path="url(#clip0_2846_4010)">
<path id="Vector" d="M10.585 1.5H1.58496C1.03496 1.5 0.584961 1.95 0.584961 2.5V4H1.58496V2.5H10.585V9.5H7.08496V10.5H10.585C11.135 10.5 11.585 10.05 11.585 9.5V2.5C11.585 1.95 11.135 1.5 10.585 1.5ZM0.584961 9V10.5H2.08496C2.08496 9.67 1.41496 9 0.584961 9ZM0.584961 7V8C1.96496 8 3.08496 9.12 3.08496 10.5H4.08496C4.08496 8.565 2.51996 7 0.584961 7ZM0.584961 5V6C3.06996 6 5.08496 8.015 5.08496 10.5H6.08496C6.08496 7.46 3.61996 5 0.584961 5Z" fill="#323232"/>
</g>
<defs>
<clipPath id="clip0_2846_4010">
<rect width="12" height="12" fill="white" transform="translate(0.0849609)"/>
</clipPath>
</defs>
</svg>
