<svg width="480" height="202" viewBox="0 0 480 202" fill="none" xmlns="http://www.w3.org/2000/svg">
<path d="M140.13 136V107.31H78.38V95.53L142.79 2.04999H155.9V94.01H175.85V107.31H155.9V136H140.13ZM140.13 94.01V27.7L94.53 94.01H140.13ZM239.426 137.71C224.099 137.71 212.446 131.82 204.466 120.04C196.486 108.26 192.496 91.2233 192.496 68.93C192.496 46.51 196.486 29.4733 204.466 17.82C212.446 6.16666 224.099 0.339991 239.426 0.339991C254.879 0.339991 266.532 6.16666 274.386 17.82C282.366 29.3467 286.356 46.32 286.356 68.74C286.356 91.16 282.302 108.26 274.196 120.04C266.216 131.82 254.626 137.71 239.426 137.71ZM239.426 124.22C250.066 124.22 257.919 119.723 262.986 110.73C268.179 101.737 270.776 87.74 270.776 68.74C270.776 49.74 268.242 35.87 263.176 27.13C258.109 18.2633 250.192 13.83 239.426 13.83C228.786 13.83 220.869 18.2633 215.676 27.13C210.609 35.9967 208.076 49.8667 208.076 68.74C208.076 87.74 210.609 101.737 215.676 110.73C220.869 119.723 228.786 124.22 239.426 124.22ZM367.982 136V107.31H306.232V95.53L370.642 2.04999H383.752V94.01H403.702V107.31H383.752V136H367.982ZM367.982 94.01V27.7L322.382 94.01H367.982Z" fill="#E99E36"/>
<path d="M85.5115 196.341C83.1555 196.341 81.1405 195.876 79.4665 194.946C77.7925 194.016 76.5008 192.714 75.5915 191.04C74.7028 189.345 74.2585 187.351 74.2585 185.057C74.2585 182.784 74.7028 180.81 75.5915 179.136C76.5008 177.441 77.7925 176.129 79.4665 175.199C81.1405 174.269 83.1555 173.804 85.5115 173.804C86.9582 173.804 88.3428 174.031 89.6655 174.486C90.9882 174.941 92.0732 175.561 92.9205 176.346L91.4325 180.159C90.5025 179.436 89.5622 178.909 88.6115 178.578C87.6815 178.227 86.6998 178.051 85.6665 178.051C83.5792 178.051 81.9982 178.661 80.9235 179.88C79.8695 181.079 79.3425 182.804 79.3425 185.057C79.3425 187.31 79.8695 189.046 80.9235 190.265C81.9982 191.484 83.5792 192.094 85.6665 192.094C86.6998 192.094 87.6815 191.929 88.6115 191.598C89.5622 191.247 90.5025 190.709 91.4325 189.986L92.9205 193.799C92.0732 194.564 90.9882 195.184 89.6655 195.659C88.3428 196.114 86.9582 196.341 85.5115 196.341ZM99.1396 196V184.437H94.1176V180.779H108.843V184.437H103.821V196H99.1396ZM111.113 201.58V180.779H115.701V183.042C116.114 182.257 116.745 181.637 117.592 181.182C118.46 180.707 119.431 180.469 120.506 180.469C121.829 180.469 122.986 180.789 123.978 181.43C124.991 182.071 125.776 182.98 126.334 184.158C126.892 185.336 127.171 186.741 127.171 188.374C127.171 190.007 126.892 191.422 126.334 192.621C125.776 193.799 124.991 194.719 123.978 195.38C122.986 196.021 121.829 196.341 120.506 196.341C119.493 196.341 118.563 196.124 117.716 195.69C116.889 195.256 116.249 194.677 115.794 193.954V201.58H111.113ZM119.111 192.838C120.103 192.838 120.909 192.476 121.529 191.753C122.149 191.03 122.459 189.903 122.459 188.374C122.459 186.865 122.149 185.76 121.529 185.057C120.909 184.334 120.103 183.972 119.111 183.972C118.098 183.972 117.282 184.334 116.662 185.057C116.042 185.76 115.732 186.865 115.732 188.374C115.732 189.903 116.042 191.03 116.662 191.753C117.282 192.476 118.098 192.838 119.111 192.838ZM135.664 196.341C134.528 196.341 133.525 196.124 132.657 195.69C131.789 195.256 131.097 194.667 130.58 193.923C130.084 193.179 129.836 192.342 129.836 191.412C129.836 190.317 130.126 189.438 130.704 188.777C131.283 188.116 132.223 187.651 133.525 187.382C134.827 187.093 136.553 186.948 138.702 186.948H139.818V186.421C139.818 185.512 139.612 184.871 139.198 184.499C138.785 184.106 138.082 183.91 137.09 183.91C136.264 183.91 135.385 184.044 134.455 184.313C133.546 184.561 132.637 184.943 131.727 185.46L130.456 182.329C130.994 181.978 131.645 181.657 132.409 181.368C133.195 181.079 134.011 180.862 134.858 180.717C135.706 180.552 136.512 180.469 137.276 180.469C139.632 180.469 141.389 181.006 142.546 182.081C143.704 183.135 144.282 184.778 144.282 187.01V196H139.911V193.706C139.601 194.512 139.074 195.153 138.33 195.628C137.607 196.103 136.718 196.341 135.664 196.341ZM136.718 193.21C137.586 193.21 138.32 192.91 138.919 192.311C139.519 191.712 139.818 190.937 139.818 189.986V189.366H138.733C137.142 189.366 136.016 189.511 135.354 189.8C134.693 190.069 134.362 190.544 134.362 191.226C134.362 191.805 134.559 192.28 134.951 192.652C135.365 193.024 135.954 193.21 136.718 193.21ZM148.289 196V180.779H152.97V186.421H158.767V180.779H163.448V196H158.767V190.048H152.97V196H148.289ZM167.512 196V180.779H171.728V189.986L178.672 180.779H182.516V196H178.3V186.793L171.356 196H167.512ZM199.852 200.03V196H186.615V180.779H191.296V192.373H196.597V180.779H201.278V192.373H203.82V200.03H199.852ZM211.529 196.341C210.393 196.341 209.39 196.124 208.522 195.69C207.654 195.256 206.962 194.667 206.445 193.923C205.949 193.179 205.701 192.342 205.701 191.412C205.701 190.317 205.991 189.438 206.569 188.777C207.148 188.116 208.088 187.651 209.39 187.382C210.692 187.093 212.418 186.948 214.567 186.948H215.683V186.421C215.683 185.512 215.477 184.871 215.063 184.499C214.65 184.106 213.947 183.91 212.955 183.91C212.129 183.91 211.25 184.044 210.32 184.313C209.411 184.561 208.502 184.943 207.592 185.46L206.321 182.329C206.859 181.978 207.51 181.657 208.274 181.368C209.06 181.079 209.876 180.862 210.723 180.717C211.571 180.552 212.377 180.469 213.141 180.469C215.497 180.469 217.254 181.006 218.411 182.081C219.569 183.135 220.147 184.778 220.147 187.01V196H215.776V193.706C215.466 194.512 214.939 195.153 214.195 195.628C213.472 196.103 212.583 196.341 211.529 196.341ZM212.583 193.21C213.451 193.21 214.185 192.91 214.784 192.311C215.384 191.712 215.683 190.937 215.683 189.986V189.366H214.598C213.007 189.366 211.881 189.511 211.219 189.8C210.558 190.069 210.227 190.544 210.227 191.226C210.227 191.805 210.424 192.28 210.816 192.652C211.23 193.024 211.819 193.21 212.583 193.21ZM232.782 196V180.779H237.463V186.421H243.26V180.779H247.941V196H243.26V190.048H237.463V196H232.782ZM259.91 196.341C258.112 196.341 256.562 196.021 255.26 195.38C253.979 194.719 252.987 193.799 252.284 192.621C251.602 191.422 251.261 190.017 251.261 188.405C251.261 186.834 251.592 185.46 252.253 184.282C252.935 183.083 253.855 182.153 255.012 181.492C256.19 180.81 257.544 180.469 259.073 180.469C261.285 180.469 263.041 181.172 264.343 182.577C265.645 183.962 266.296 185.842 266.296 188.219V189.397H255.725C255.891 190.596 256.325 191.474 257.027 192.032C257.751 192.569 258.743 192.838 260.003 192.838C260.83 192.838 261.667 192.714 262.514 192.466C263.362 192.218 264.126 191.836 264.808 191.319L266.048 194.45C265.284 195.029 264.343 195.494 263.227 195.845C262.132 196.176 261.026 196.341 259.91 196.341ZM259.259 183.569C258.267 183.569 257.461 183.869 256.841 184.468C256.242 185.067 255.87 185.904 255.725 186.979H262.421C262.297 184.706 261.243 183.569 259.259 183.569ZM278.131 196V180.779H282.812V186.421H288.609V180.779H293.29V196H288.609V190.048H282.812V196H278.131ZM302.501 196.341C301.364 196.341 300.362 196.124 299.494 195.69C298.626 195.256 297.934 194.667 297.417 193.923C296.921 193.179 296.673 192.342 296.673 191.412C296.673 190.317 296.962 189.438 297.541 188.777C298.12 188.116 299.06 187.651 300.362 187.382C301.664 187.093 303.39 186.948 305.539 186.948H306.655V186.421C306.655 185.512 306.448 184.871 306.035 184.499C305.622 184.106 304.919 183.91 303.927 183.91C303.1 183.91 302.222 184.044 301.292 184.313C300.383 184.561 299.473 184.943 298.564 185.46L297.293 182.329C297.83 181.978 298.481 181.657 299.246 181.368C300.031 181.079 300.848 180.862 301.695 180.717C302.542 180.552 303.348 180.469 304.113 180.469C306.469 180.469 308.226 181.006 309.383 182.081C310.54 183.135 311.119 184.778 311.119 187.01V196H306.748V193.706C306.438 194.512 305.911 195.153 305.167 195.628C304.444 196.103 303.555 196.341 302.501 196.341ZM303.555 193.21C304.423 193.21 305.157 192.91 305.756 192.311C306.355 191.712 306.655 190.937 306.655 189.986V189.366H305.57C303.979 189.366 302.852 189.511 302.191 189.8C301.53 190.069 301.199 190.544 301.199 191.226C301.199 191.805 301.395 192.28 301.788 192.652C302.201 193.024 302.79 193.21 303.555 193.21ZM315.126 196V180.779H319.342V189.986L326.286 180.779H330.13V196H325.914V186.793L318.97 196H315.126ZM322.597 178.888C320.881 178.888 319.538 178.464 318.567 177.617C317.595 176.77 316.986 175.705 316.738 174.424L319.032 173.68C319.362 174.631 319.807 175.323 320.365 175.757C320.943 176.191 321.698 176.408 322.628 176.408C323.578 176.408 324.333 176.181 324.891 175.726C325.449 175.271 325.893 174.6 326.224 173.711L328.394 174.424C328.042 175.829 327.36 176.925 326.348 177.71C325.335 178.495 324.085 178.888 322.597 178.888ZM332.988 200.03V192.404H334.817C335.334 191.536 335.706 190.534 335.933 189.397C336.16 188.24 336.274 186.783 336.274 185.026V180.779H348.767V192.404H351.278V200.03H347.31V196H336.925V200.03H332.988ZM338.94 192.435H344.396V184.344H340.242V186.204C340.242 187.341 340.128 188.467 339.901 189.583C339.674 190.699 339.353 191.65 338.94 192.435ZM361.75 196.341C359.952 196.341 358.402 196.021 357.1 195.38C355.819 194.719 354.827 193.799 354.124 192.621C353.442 191.422 353.101 190.017 353.101 188.405C353.101 186.834 353.432 185.46 354.093 184.282C354.775 183.083 355.695 182.153 356.852 181.492C358.03 180.81 359.384 180.469 360.913 180.469C363.125 180.469 364.881 181.172 366.183 182.577C367.485 183.962 368.136 185.842 368.136 188.219V189.397H357.565C357.731 190.596 358.165 191.474 358.867 192.032C359.591 192.569 360.583 192.838 361.843 192.838C362.67 192.838 363.507 192.714 364.354 192.466C365.202 192.218 365.966 191.836 366.648 191.319L367.888 194.45C367.124 195.029 366.183 195.494 365.067 195.845C363.972 196.176 362.866 196.341 361.75 196.341ZM361.099 183.569C360.107 183.569 359.301 183.869 358.681 184.468C358.082 185.067 357.71 185.904 357.565 186.979H364.261C364.137 184.706 363.083 183.569 361.099 183.569ZM371.343 196V180.779H376.024V186.421H381.821V180.779H386.502V196H381.821V190.048H376.024V196H371.343ZM395.713 196.341C394.576 196.341 393.574 196.124 392.706 195.69C391.838 195.256 391.146 194.667 390.629 193.923C390.133 193.179 389.885 192.342 389.885 191.412C389.885 190.317 390.174 189.438 390.753 188.777C391.332 188.116 392.272 187.651 393.574 187.382C394.876 187.093 396.602 186.948 398.751 186.948H399.867V186.421C399.867 185.512 399.66 184.871 399.247 184.499C398.834 184.106 398.131 183.91 397.139 183.91C396.312 183.91 395.434 184.044 394.504 184.313C393.595 184.561 392.685 184.943 391.776 185.46L390.505 182.329C391.042 181.978 391.693 181.657 392.458 181.368C393.243 181.079 394.06 180.862 394.907 180.717C395.754 180.552 396.56 180.469 397.325 180.469C399.681 180.469 401.438 181.006 402.595 182.081C403.752 183.135 404.331 184.778 404.331 187.01V196H399.96V193.706C399.65 194.512 399.123 195.153 398.379 195.628C397.656 196.103 396.767 196.341 395.713 196.341ZM396.767 193.21C397.635 193.21 398.369 192.91 398.968 192.311C399.567 191.712 399.867 190.937 399.867 189.986V189.366H398.782C397.191 189.366 396.064 189.511 395.403 189.8C394.742 190.069 394.411 190.544 394.411 191.226C394.411 191.805 394.607 192.28 395 192.652C395.413 193.024 396.002 193.21 396.767 193.21Z" fill="#E99E36"/>
<line x1="68.5" y1="137.96" x2="383.729" y2="137.96" stroke="#E99E36" stroke-width="4"/>
<line x1="410.5" y1="137.96" x2="479.442" y2="137.96" stroke="#E99E36" stroke-width="4"/>
<line x1="0.59082" y1="137.96" x2="38.8037" y2="137.96" stroke="#E99E36" stroke-width="4"/>
</svg>
