<svg width="298" height="121" viewBox="0 0 298 121" fill="none" xmlns="http://www.w3.org/2000/svg">
<g filter="url(#filter0_d_351_1130)">
<g filter="url(#filter1_d_351_1130)">
<rect x="66" y="34" width="53.1408" height="53.1408" rx="7.1903" fill="#E99E36"/>
<g clip-path="url(#clip0_351_1130)">
<path d="M78.3682 49.209V71.9332H81.5807V52.4311H106.773V49.209H78.3682Z" fill="white"/>
<path d="M100.517 55.6528H84.9619V58.8749H100.517V55.6528Z" fill="white"/>
<path d="M106.773 68.7119H84.793V71.934H106.773V68.7119Z" fill="white"/>
<path d="M103.561 62.2666H84.793V65.4887H103.561V62.2666Z" fill="white"/>
</g>
</g>
<path d="M136.424 72.5703V47.0265H153.417V50.7222H140.88V57.7513H152.62V61.447H140.88V68.8746H153.417V72.5703H136.424ZM165.547 72.9326C160.861 72.9326 158.518 70.6138 158.518 65.976V58.2585H155.112V54.8527H158.518V49.5628H163.047V54.8527H168.409V58.2585H163.047V65.7224C163.047 66.8818 163.301 67.7514 163.808 68.3311C164.315 68.9108 165.137 69.2007 166.272 69.2007C166.61 69.2007 166.96 69.1645 167.323 69.092C167.685 68.9954 168.059 68.8988 168.446 68.8021L169.134 72.1355C168.699 72.3771 168.144 72.5703 167.467 72.7152C166.815 72.8602 166.175 72.9326 165.547 72.9326ZM177.75 72.9326C173.402 72.9326 171.228 70.493 171.228 65.6137V54.8527H175.757V65.6862C175.757 66.9422 176.011 67.8722 176.518 68.4761C177.025 69.0799 177.834 69.3819 178.945 69.3819C180.153 69.3819 181.144 68.9712 181.917 68.15C182.689 67.3045 183.076 66.1934 183.076 64.8166V54.8527H187.605V72.5703H183.185V69.9254C182.001 71.9302 180.189 72.9326 177.75 72.9326ZM199.131 72.9326C197.585 72.9326 196.22 72.5582 195.036 71.8094C193.877 71.0606 192.971 69.9978 192.319 68.621C191.667 67.22 191.341 65.5775 191.341 63.6934C191.341 61.7851 191.667 60.1547 192.319 58.802C192.971 57.4252 193.877 56.3624 195.036 55.6136C196.22 54.8648 197.585 54.4904 199.131 54.4904C200.387 54.4904 201.522 54.7681 202.536 55.3237C203.551 55.8793 204.312 56.616 204.819 57.5339V47.0265H209.348V72.5703H204.928V69.6355C204.445 70.65 203.684 71.4592 202.645 72.0631C201.606 72.6428 200.435 72.9326 199.131 72.9326ZM200.399 69.4906C201.751 69.4906 202.838 69.0075 203.66 68.0413C204.481 67.0509 204.892 65.6016 204.892 63.6934C204.892 61.761 204.481 60.3238 203.66 59.3817C202.838 58.4155 201.751 57.9324 200.399 57.9324C199.046 57.9324 197.959 58.4155 197.138 59.3817C196.317 60.3238 195.906 61.761 195.906 63.6934C195.906 65.6016 196.317 67.0509 197.138 68.0413C197.959 69.0075 199.046 69.4906 200.399 69.4906ZM222.776 72.9326C220.771 72.9326 219.044 72.5582 217.595 71.8094C216.146 71.0606 215.022 69.9978 214.225 68.621C213.452 67.2442 213.066 65.6137 213.066 63.7296C213.066 61.8938 213.44 60.2875 214.189 58.9107C214.962 57.5339 216.013 56.459 217.341 55.686C218.694 54.8889 220.228 54.4904 221.943 54.4904C224.455 54.4904 226.436 55.2875 227.885 56.8817C229.358 58.4759 230.095 60.6499 230.095 63.4035V64.7441H217.414C217.752 67.9084 219.564 69.4906 222.849 69.4906C223.839 69.4906 224.829 69.3456 225.82 69.0558C226.81 68.7418 227.716 68.2587 228.537 67.6065L229.805 70.65C228.96 71.3505 227.897 71.9061 226.617 72.3167C225.337 72.7273 224.056 72.9326 222.776 72.9326ZM222.124 57.5701C220.795 57.5701 219.721 57.9807 218.899 58.802C218.078 59.6233 217.583 60.7344 217.414 62.1354H226.327C226.23 60.6619 225.82 59.5387 225.095 58.7658C224.395 57.9687 223.404 57.5701 222.124 57.5701Z" fill="#E99E36"/>
</g>
<defs>
<filter id="filter0_d_351_1130" x="32.787" y="0.787003" width="233.06" height="119.567" filterUnits="userSpaceOnUse" color-interpolation-filters="sRGB">
<feFlood flood-opacity="0" result="BackgroundImageFix"/>
<feColorMatrix in="SourceAlpha" type="matrix" values="0 0 0 0 0 0 0 0 0 0 0 0 0 0 0 0 0 0 127 0" result="hardAlpha"/>
<feOffset/>
<feGaussianBlur stdDeviation="16.6065"/>
<feComposite in2="hardAlpha" operator="out"/>
<feColorMatrix type="matrix" values="0 0 0 0 1 0 0 0 0 1 0 0 0 0 1 0 0 0 0.5 0"/>
<feBlend mode="normal" in2="BackgroundImageFix" result="effect1_dropShadow_351_1130"/>
<feBlend mode="normal" in="SourceGraphic" in2="effect1_dropShadow_351_1130" result="shape"/>
</filter>
<filter id="filter1_d_351_1130" x="41.2834" y="9.28335" width="102.574" height="102.574" filterUnits="userSpaceOnUse" color-interpolation-filters="sRGB">
<feFlood flood-opacity="0" result="BackgroundImageFix"/>
<feColorMatrix in="SourceAlpha" type="matrix" values="0 0 0 0 0 0 0 0 0 0 0 0 0 0 0 0 0 0 127 0" result="hardAlpha"/>
<feOffset/>
<feGaussianBlur stdDeviation="12.3583"/>
<feComposite in2="hardAlpha" operator="out"/>
<feColorMatrix type="matrix" values="0 0 0 0 1 0 0 0 0 1 0 0 0 0 1 0 0 0 0.5 0"/>
<feBlend mode="normal" in2="BackgroundImageFix" result="effect1_dropShadow_351_1130"/>
<feBlend mode="normal" in="SourceGraphic" in2="effect1_dropShadow_351_1130" result="shape"/>
</filter>
<clipPath id="clip0_351_1130">
<rect width="28.4053" height="22.7242" fill="white" transform="translate(78.3682 49.2085)"/>
</clipPath>
</defs>
</svg>
